<svg width="19" height="26" viewBox="0 0 19 26" fill="none" xmlns="http://www.w3.org/2000/svg">
<path d="M0.200003 1.85144V24.3514C0.200718 24.5792 0.263546 24.8025 0.381725 24.9973C0.499905 25.192 0.668959 25.3509 0.870693 25.4567C1.07243 25.5625 1.2992 25.6113 1.52661 25.5978C1.75401 25.5843 1.97343 25.5091 2.16125 25.3802L18.4113 14.1302C19.085 13.6639 19.085 12.5414 18.4113 12.0739L2.16125 0.823938C1.97382 0.693719 1.75429 0.617355 1.52651 0.603144C1.29873 0.588933 1.07141 0.637417 0.869244 0.74333C0.667082 0.849243 0.49781 1.00853 0.379824 1.20389C0.261835 1.39925 0.199644 1.62321 0.200003 1.85144Z" fill="#322623"/>
</svg>
