<svg width="35" height="35" viewBox="0 0 35 35" fill="none" xmlns="http://www.w3.org/2000/svg">
<path d="M11.6667 28.25C11.6667 29.8542 10.3542 31.1667 8.75 31.1667C7.14583 31.1667 5.83333 29.8542 5.83333 28.25C5.83333 26.6458 7.14583 25.3333 8.75 25.3333C10.3542 25.3333 11.6667 26.6458 11.6667 28.25ZM23.3333 25.3333C21.7292 25.3333 20.4167 26.6458 20.4167 28.25C20.4167 29.8542 21.7292 31.1667 23.3333 31.1667C24.9375 31.1667 26.25 29.8542 26.25 28.25C26.25 26.6458 24.9375 25.3333 23.3333 25.3333ZM9.04167 20.6667V20.5208L10.3542 18.0417H21.1458C22.1667 18.0417 23.1875 17.4583 23.625 16.5833L29.3125 6.375L26.8333 4.91667L21.1458 15.125H10.9375L4.8125 2H0V4.91667H2.91667L8.16667 16L6.125 19.5C5.97917 19.9375 5.83333 20.375 5.83333 20.9583C5.83333 22.5625 7.14583 23.875 8.75 23.875H26.25V20.9583H9.33333C9.1875 20.9583 9.04167 20.8125 9.04167 20.6667ZM16.0417 12.6458L15.1667 11.9167C12.25 9.14583 10.2083 7.39583 10.2083 5.20833C10.2083 3.45833 11.6667 2 13.4167 2C14.4375 2 15.4583 2.4375 16.0417 3.16667C16.625 2.4375 17.6458 2 18.6667 2C20.4167 2 21.875 3.3125 21.875 5.20833C21.875 7.39583 19.8333 9.14583 16.9167 11.9167L16.0417 12.6458Z" fill="#A08F8C"/>
<path d="M15.1667 11.9167L16.0417 12.6458L16.9167 11.9167C19.8333 9.14583 21.875 7.39583 21.875 5.20833C21.875 3.3125 20.4167 2 18.6667 2C17.6458 2 16.625 2.4375 16.0417 3.16667C15.4583 2.4375 14.4375 2 13.4167 2C11.6667 2 10.2083 3.45833 10.2083 5.20833C10.2083 7.39583 12.25 9.14583 15.1667 11.9167Z" fill="#A08F8C"/>
</svg>
