<svg width="108" height="71" viewBox="0 0 108 71" fill="none" xmlns="http://www.w3.org/2000/svg">
<path d="M21 17.48C21 17.64 20.8 17.72 20.4 17.72C20 17.72 19.7733 17.6133 19.72 17.4C19.2933 15.72 18.7867 14.7467 18.2 14.48C16.7867 13.9467 14.44 13.6667 11.16 13.64C10.6533 13.6933 10.3067 13.84 10.12 14.08C9.93333 14.32 9.84 14.7867 9.84 15.48V25.08C11.52 25.0533 13.1733 24.9733 14.8 24.84C16.4533 24.7067 17.3467 24.6 17.48 24.52L17.88 22.16C17.9067 21.9733 18.0667 21.88 18.36 21.88C18.92 21.88 19.1733 22 19.12 22.24C18.9867 23.28 18.92 24.4533 18.92 25.76C18.92 27.0667 18.9867 28.24 19.12 29.28C19.1733 29.4933 18.9733 29.6 18.52 29.6C18.0933 29.6 17.88 29.52 17.88 29.36L17.44 26.96C17.28 26.88 16.3867 26.7733 14.76 26.64C13.16 26.48 11.52 26.3867 9.84 26.36V33.88C9.84 36.2267 10.12 37.4 10.68 37.4H13C13.2133 37.4 13.32 37.6667 13.32 38.2C13.32 38.7333 13.2133 39 13 39L7.96 38.96L2.36 39.08C2.14667 39.08 2.04 38.8533 2.04 38.4C2.04 37.9467 2.14667 37.72 2.36 37.72H4.08C4.74667 37.72 5.18667 37.6 5.4 37.36C5.61333 37.0933 5.72 36.6 5.72 35.88V16.92C5.72 14.5733 5.44 13.4 4.88 13.4H2.56C2.34667 13.4 2.24 13.1867 2.24 12.76C2.24 12.3067 2.34667 12.08 2.56 12.08L7.6 12.16H19.44V11.32C19.44 11.08 19.6267 10.96 20 10.96C20.4 10.96 20.6 11.08 20.6 11.32L21 17.48Z" fill="#a08f8c"/>
<path d="M31.6 48.08C31.6 50.2933 30.6533 52.0933 28.76 53.48C26.8667 54.84 24.7733 55.52 22.48 55.52C20.1867 55.52 18.16 55.12 16.4 54.32L16.72 55.12C16.8 55.28 16.7333 55.4267 16.52 55.56C16.3333 55.72 16.12 55.8 15.88 55.8C15.64 55.8 15.48 55.7333 15.4 55.6C14.5467 53.44 14.0267 50.9333 13.84 48.08C13.84 47.8133 14.0533 47.68 14.48 47.68C14.9067 47.68 15.1333 47.7733 15.16 47.96C15.7467 49.9867 16.9333 51.6133 18.72 52.84C19.8133 53.6133 21.08 54 22.52 54C23.9867 54 25.16 53.5867 26.04 52.76C26.9467 51.9067 27.4 50.8933 27.4 49.72C27.4 48.52 27.0933 47.4533 26.48 46.52C25.8667 45.56 25.1067 44.7867 24.2 44.2C23.2933 43.6133 22.3067 43 21.24 42.36C20.1733 41.6933 19.1867 41.0667 18.28 40.48C17.3733 39.8667 16.6133 39.0533 16 38.04C15.3867 37.0267 15.08 35.88 15.08 34.6C15.08 32.6533 15.9467 31.0133 17.68 29.68C19.44 28.32 21.64 27.64 24.28 27.64C25.48 27.64 26.6 27.8 27.64 28.12L28.12 28.24C28.0133 27.8133 27.9467 27.52 27.92 27.36C27.92 27.2 27.9733 27.0933 28.08 27.04C28.2133 26.96 28.4 26.92 28.64 26.92C28.9067 26.92 29.08 27.0267 29.16 27.24C29.7733 29.4 30.1333 31.52 30.24 33.6C30.16 33.76 29.9333 33.84 29.56 33.84C29.2133 33.84 29 33.8 28.92 33.72C28.6267 32.6267 28.2133 31.7333 27.68 31.04C27.1467 30.32 26.56 29.8267 25.92 29.56C25.28 29.2933 24.5333 29.16 23.68 29.16C22.0267 29.16 20.84 29.5867 20.12 30.44C19.4267 31.2667 19.08 32.1867 19.08 33.2C19.08 34.1867 19.3067 35.04 19.76 35.76C20.24 36.4533 20.84 37.0667 21.56 37.6C22.3067 38.1067 23.12 38.6133 24 39.12C24.88 39.6 25.76 40.12 26.64 40.68C27.5467 41.24 28.3733 41.8533 29.12 42.52C30.7733 43.9867 31.6 45.84 31.6 48.08Z" fill="#a08f8c"/>
<path d="M43.88 23.96C43.88 24.12 43.6933 24.2 43.32 24.2C42.9733 24.2 42.8 24.1067 42.8 23.92C42.5333 22.6133 42.1333 21.8933 41.6 21.76C40.64 21.5467 39.1867 21.4133 37.24 21.36H36.48C36.2133 21.3867 36.08 21.6 36.08 22V34.72C36.08 36.7467 36.3467 37.76 36.88 37.76H38.88C39.0933 37.76 39.2 37.9733 39.2 38.4C39.2 38.8 39.12 39 38.96 39L34.32 38.96L30.32 39.08C30.1333 39.08 30.04 38.88 30.04 38.48C30.04 38.08 30.12 37.88 30.28 37.88H32.08C32.3733 37.88 32.5467 37.8267 32.6 37.72C32.6533 37.5867 32.68 37.2533 32.68 36.72V24.56C32.68 22.56 32.44 21.4933 31.96 21.36C29.8 21.36 28.1867 21.4933 27.12 21.76C26.5867 21.8933 26.1867 22.6133 25.92 23.92C25.92 24.1067 25.7333 24.2 25.36 24.2C25.0133 24.2 24.84 24.12 24.84 23.96L25.04 19.16C25.04 19 25.2133 18.92 25.56 18.92C25.9333 18.92 26.12 19 26.12 19.16V19.68C26.12 19.68 27.8667 19.7067 31.36 19.76H34.32C38.3733 19.76 41.0933 19.7333 42.48 19.68H42.6V19.16C42.6 19 42.7733 18.92 43.12 18.92C43.4933 18.92 43.68 19 43.68 19.16L43.88 23.96ZM49.4231 22.24C51.5831 20.24 54.0898 19.24 56.9431 19.24C59.7965 19.24 62.2898 20.24 64.4231 22.24C66.5831 24.24 67.6631 26.6133 67.6631 29.36C67.6631 32.08 66.5831 34.4533 64.4231 36.48C62.2898 38.5067 59.7965 39.52 56.9431 39.52C54.0898 39.52 51.5831 38.5067 49.4231 36.48C47.2898 34.4533 46.2231 32.08 46.2231 29.36C46.2231 26.6133 47.2898 24.24 49.4231 22.24ZM61.7831 23.2C60.5298 21.52 58.9165 20.68 56.9431 20.68C54.9698 20.68 53.3565 21.52 52.1031 23.2C50.8498 24.8533 50.2231 26.9067 50.2231 29.36C50.2231 31.7867 50.8498 33.8533 52.1031 35.56C53.3565 37.24 54.9698 38.08 56.9431 38.08C58.9165 38.08 60.5298 37.24 61.7831 35.56C63.0365 33.8533 63.6631 31.7867 63.6631 29.36C63.6631 26.9067 63.0365 24.8533 61.7831 23.2ZM75.3553 39L71.0753 39.08C70.8886 39.08 70.7953 38.88 70.7953 38.48C70.7953 38.08 70.862 37.88 70.9953 37.88H72.9553C73.2753 37.88 73.4353 37.6533 73.4353 37.2V24.08C73.4353 21.9733 73.142 20.92 72.5553 20.92H71.1553C70.862 20.92 70.7153 20.72 70.7153 20.32C70.7153 19.8933 70.8353 19.68 71.0753 19.68C73.4486 19.7333 75.8753 19.76 78.3553 19.76C80.8353 19.76 82.7553 20.2933 84.1153 21.36C85.502 22.4 86.1953 23.6933 86.1953 25.24C86.1953 26.76 85.6486 27.9867 84.5553 28.92C83.462 29.8533 82.142 30.3867 80.5953 30.52C81.3686 31.0533 82.3686 32.12 83.5953 33.72C84.0486 34.3333 84.7553 35.04 85.7153 35.84C86.6753 36.6133 87.7553 37.3067 88.9553 37.92C88.422 38.9867 87.6086 39.52 86.5153 39.52C85.422 39.52 84.462 39.12 83.6353 38.32C82.8086 37.52 82.1686 36.64 81.7153 35.68C81.262 34.6933 80.7553 33.68 80.1953 32.64C79.662 31.6 79.1553 30.92 78.6753 30.6L76.8353 30.48V35.12C76.8353 36.88 77.102 37.76 77.6353 37.76H79.3153C79.5286 37.76 79.6353 37.9733 79.6353 38.4C79.6353 38.8 79.5686 39 79.4353 39H75.3553ZM77.6353 20.96C77.102 20.96 76.8353 21.4 76.8353 22.28V28.92C77.2086 29 77.582 29.04 77.9553 29.04C79.1553 29.04 80.1953 28.7067 81.0753 28.04C81.9553 27.3733 82.3953 26.4667 82.3953 25.32C82.3953 24.1733 81.9953 23.16 81.1953 22.28C80.422 21.4 79.2353 20.96 77.6353 20.96ZM91.1553 19.68L95.2353 19.76H103.515V19.12C103.515 18.96 103.689 18.88 104.035 18.88C104.409 18.88 104.595 18.96 104.595 19.12C104.595 21.2267 104.689 22.7333 104.875 23.64C104.929 23.8 104.782 23.88 104.435 23.88C103.982 23.88 103.755 23.8 103.755 23.64C103.382 22.4133 103.022 21.72 102.675 21.56C101.555 21.16 99.9286 20.96 97.7953 20.96C97.422 20.9867 97.1686 21.0933 97.0353 21.28C96.902 21.4667 96.8353 21.8 96.8353 22.28V28.84C100.062 28.7333 101.835 28.5867 102.155 28.4L102.435 26.72C102.489 26.5867 102.675 26.52 102.995 26.52C103.342 26.52 103.515 26.6133 103.515 26.8C103.409 27.5733 103.355 28.44 103.355 29.4C103.355 30.3333 103.409 31.1867 103.515 31.96C103.515 32.12 103.329 32.2 102.955 32.2C102.609 32.2 102.435 32.1467 102.435 32.04L102.115 30.32C101.795 30.1333 100.035 29.9867 96.8353 29.88V34.72C96.8353 36.72 97.102 37.72 97.6353 37.72H98.9153C101.849 37.6667 103.875 37.2533 104.995 36.48L105.195 34.92C105.249 34.76 105.382 34.68 105.595 34.68C105.835 34.68 105.995 34.68 106.075 34.68C106.235 34.7333 106.315 34.8133 106.315 34.92C106.155 36.04 106.075 37.6133 106.075 39.64C106.075 39.7733 105.889 39.84 105.515 39.84C105.169 39.84 104.995 39.7733 104.995 39.64V39H97.8753L91.0753 39.08C90.8886 39.08 90.7953 38.88 90.7953 38.48C90.7953 38.08 90.8753 37.88 91.0353 37.88H92.8353C93.1286 37.88 93.302 37.8267 93.3553 37.72C93.4086 37.5867 93.4353 37.2533 93.4353 36.72V24.12C93.4353 21.9867 93.1686 20.92 92.6353 20.92H91.1953C90.8753 20.92 90.7153 20.72 90.7153 20.32C90.7153 19.8933 90.862 19.68 91.1553 19.68Z" fill="#a08f8c"/>
</svg>
