<svg width="80" height="80" viewBox="0 0 80 80" fill="none" xmlns="http://www.w3.org/2000/svg">
<path d="M37.5767 67.7099C37.276 68.0282 37.0409 68.4025 36.8848 68.8116C36.7288 69.2207 36.6548 69.6566 36.6672 70.0942C36.6796 70.5319 36.7781 70.9628 36.957 71.3625C37.1359 71.7621 37.3918 72.1225 37.71 72.4233C38.0283 72.724 38.4026 72.9591 38.8117 73.1152C39.2208 73.2712 39.6566 73.3452 40.0943 73.3328C40.532 73.3204 40.9629 73.2219 41.3626 73.043C41.7622 72.8641 42.1226 72.6082 42.4234 72.2899L70.7567 42.2899C71.3418 41.671 71.6678 40.8516 71.6678 39.9999C71.6678 39.1482 71.3418 38.3288 70.7567 37.7099L42.4234 7.7066C42.1246 7.3814 41.7642 7.1188 41.3632 6.93404C40.9621 6.7493 40.5283 6.64609 40.087 6.63041C39.6456 6.61473 39.2056 6.6869 38.7924 6.84271C38.3792 6.99854 38.0011 7.23489 37.68 7.53808C37.359 7.84126 37.1013 8.20522 36.9221 8.6088C36.7429 9.0124 36.6457 9.44757 36.6361 9.88906C36.6264 10.3306 36.7046 10.7696 36.8661 11.1806C37.0276 11.5916 37.2691 11.9664 37.5767 12.2833L63.75 39.9999L37.5767 67.7099Z" fill="#D4BAB4"/>
</svg>
