<svg width="80" height="80" viewBox="0 0 80 80" fill="none" xmlns="http://www.w3.org/2000/svg">
<path d="M42.4233 12.2901C42.7241 11.9718 42.9592 11.5975 43.1152 11.1884C43.2713 10.7793 43.3452 10.3434 43.3328 9.90578C43.3204 9.4681 43.222 9.03715 43.043 8.63753C42.8641 8.23791 42.6082 7.87745 42.29 7.57672C41.9718 7.276 41.5974 7.0409 41.1883 6.88484C40.7792 6.72879 40.3434 6.65485 39.9057 6.66723C39.468 6.67961 39.0371 6.77807 38.6375 6.957C38.2379 7.13593 37.8774 7.39182 37.5767 7.71006L9.24333 37.7101C8.6582 38.329 8.33218 39.1484 8.33218 40.0001C8.33218 40.8518 8.6582 41.6712 9.24333 42.2901L37.5767 72.2934C37.8754 72.6186 38.2358 72.8812 38.6369 73.066C39.038 73.2507 39.4718 73.3539 39.9131 73.3696C40.3544 73.3853 40.7944 73.3131 41.2076 73.1573C41.6208 73.0015 41.9989 72.7651 42.32 72.4619C42.6411 72.1587 42.8987 71.7948 43.0779 71.3912C43.2571 70.9876 43.3544 70.5524 43.364 70.1109C43.3736 69.6694 43.2954 69.2304 43.1339 68.8194C42.9724 68.4084 42.7309 68.0336 42.4233 67.7167L16.25 40.0001L42.4233 12.2901Z" fill="#D4BAB4"/>
</svg>
