<svg width="35" height="35" viewBox="0 0 35 35" fill="none" xmlns="http://www.w3.org/2000/svg">
<g clip-path="url(#clip0_1110_2)">
<path fill-rule="evenodd" clip-rule="evenodd" d="M16.0416 18.9583C16.694 18.9583 17.3337 18.9923 17.9608 19.0604C18.3454 19.1012 18.6981 19.2931 18.9413 19.594C19.1844 19.8948 19.2981 20.2799 19.2572 20.6645C19.2164 21.0492 19.0245 21.4019 18.7237 21.645C18.4228 21.8881 18.0377 22.0018 17.6531 21.961C17.1271 21.9036 16.59 21.875 16.0416 21.875C13.0914 21.875 10.4373 22.7354 8.55163 23.886C7.60808 24.4606 6.89642 25.0847 6.43704 25.6681C5.96454 26.266 5.83329 26.7181 5.83329 26.9791C5.83329 27.157 5.88725 27.3452 6.20517 27.6004C6.56829 27.892 7.19975 28.1939 8.16517 28.4491C10.0873 28.9595 12.8493 29.1666 16.0416 29.1666L17.0012 29.1593C17.388 29.1541 17.761 29.3027 18.0382 29.5725C18.3154 29.8423 18.474 30.2112 18.4792 30.598C18.4845 30.9848 18.3358 31.3578 18.066 31.6349C17.7962 31.9121 17.4274 32.0708 17.0406 32.076L16.0416 32.0833C12.791 32.0833 9.71975 31.8791 7.4185 31.2695C6.27371 30.9662 5.196 30.5316 4.37933 29.8754C3.51454 29.1812 2.91663 28.2114 2.91663 26.9791C2.91663 25.8314 3.43871 24.7581 4.14746 23.8597C4.86788 22.9483 5.86392 22.1097 7.03204 21.3952C9.36975 19.9718 12.5489 18.9583 16.0416 18.9583ZM29.8958 21.4243C31.2316 22.2031 32.1212 23.7431 32.0833 25.4902C32.0308 27.7797 30.2633 29.5706 27.8745 30.9895C27.3758 31.287 26.8479 31.5977 26.25 31.5977C25.652 31.5977 25.1241 31.287 24.6254 30.9895C22.2366 29.5706 20.4691 27.7783 20.4181 25.4916C20.3787 23.7445 21.2683 22.2031 22.6041 21.4243C23.7022 20.7841 25.0527 20.701 26.25 21.3573C27.4472 20.701 28.7977 20.7841 29.8958 21.4243ZM28.0393 23.8204L27.9256 23.8247C27.7542 23.8506 27.5943 23.9267 27.4662 24.0435L27.3495 24.1485C26.7881 24.7172 25.8941 24.7581 25.2845 24.271L25.1489 24.1485C24.9112 23.9079 24.7114 23.8408 24.5743 23.8247C24.3985 23.8083 24.2222 23.8503 24.0727 23.9443C23.6862 24.1689 23.3172 24.7027 23.3333 25.4245C23.3479 26.0808 23.8583 27.0725 25.8125 28.2975L26.25 28.5629L26.3841 28.4827C28.5891 27.1731 29.1506 26.1129 29.1666 25.426C29.1812 24.7012 28.8137 24.1689 28.4272 23.9443C28.3095 23.8731 28.1766 23.8306 28.0393 23.8204ZM16.0416 2.91663C17.9755 2.91663 19.8302 3.68485 21.1976 5.05231C22.5651 6.41976 23.3333 8.27442 23.3333 10.2083C23.3333 12.1422 22.5651 13.9968 21.1976 15.3643C19.8302 16.7317 17.9755 17.5 16.0416 17.5C14.1078 17.5 12.2531 16.7317 10.8856 15.3643C9.51819 13.9968 8.74996 12.1422 8.74996 10.2083C8.74996 8.27442 9.51819 6.41976 10.8856 5.05231C12.2531 3.68485 14.1078 2.91663 16.0416 2.91663ZM16.0416 5.83329C15.4671 5.83329 14.8982 5.94646 14.3674 6.16632C13.8366 6.38618 13.3543 6.70844 12.948 7.1147C12.5418 7.52096 12.2195 8.00325 11.9997 8.53405C11.7798 9.06485 11.6666 9.63376 11.6666 10.2083C11.6666 10.7828 11.7798 11.3517 11.9997 11.8825C12.2195 12.4133 12.5418 12.8956 12.948 13.3019C13.3543 13.7081 13.8366 14.0304 14.3674 14.2503C14.8982 14.4701 15.4671 14.5833 16.0416 14.5833C17.2019 14.5833 18.3147 14.1224 19.1352 13.3019C19.9557 12.4814 20.4166 11.3686 20.4166 10.2083C20.4166 9.04797 19.9557 7.93517 19.1352 7.1147C18.3147 6.29423 17.2019 5.83329 16.0416 5.83329Z" fill="#A08F8C"/>
</g>
<defs>
<clipPath id="clip0_1110_2">
<rect width="35" height="35" fill="white"/>
</clipPath>
</defs>
</svg>
