<svg width="34" height="71" viewBox="0 0 34 71" fill="none" xmlns="http://www.w3.org/2000/svg">
<path d="M21 17.48C21 17.64 20.8 17.72 20.4 17.72C20 17.72 19.7733 17.6133 19.72 17.4C19.2933 15.72 18.7867 14.7467 18.2 14.48C16.7867 13.9467 14.44 13.6667 11.16 13.64C10.6533 13.6933 10.3067 13.84 10.12 14.08C9.93333 14.32 9.84 14.7867 9.84 15.48V25.08C11.52 25.0533 13.1733 24.9733 14.8 24.84C16.4533 24.7067 17.3467 24.6 17.48 24.52L17.88 22.16C17.9067 21.9733 18.0667 21.88 18.36 21.88C18.92 21.88 19.1733 22 19.12 22.24C18.9867 23.28 18.92 24.4533 18.92 25.76C18.92 27.0667 18.9867 28.24 19.12 29.28C19.1733 29.4933 18.9733 29.6 18.52 29.6C18.0933 29.6 17.88 29.52 17.88 29.36L17.44 26.96C17.28 26.88 16.3867 26.7733 14.76 26.64C13.16 26.48 11.52 26.3867 9.84 26.36V33.88C9.84 36.2267 10.12 37.4 10.68 37.4H13C13.2133 37.4 13.32 37.6667 13.32 38.2C13.32 38.7333 13.2133 39 13 39L7.96 38.96L2.36 39.08C2.14667 39.08 2.04 38.8533 2.04 38.4C2.04 37.9467 2.14667 37.72 2.36 37.72H4.08C4.74667 37.72 5.18667 37.6 5.4 37.36C5.61333 37.0933 5.72 36.6 5.72 35.88V16.92C5.72 14.5733 5.44 13.4 4.88 13.4H2.56C2.34667 13.4 2.24 13.1867 2.24 12.76C2.24 12.3067 2.34667 12.08 2.56 12.08L7.6 12.16H19.44V11.32C19.44 11.08 19.6267 10.96 20 10.96C20.4 10.96 20.6 11.08 20.6 11.32L21 17.48Z" fill="black"/>
<path d="M31.6 48.08C31.6 50.2933 30.6533 52.0933 28.76 53.48C26.8667 54.84 24.7733 55.52 22.48 55.52C20.1867 55.52 18.16 55.12 16.4 54.32L16.72 55.12C16.8 55.28 16.7333 55.4267 16.52 55.56C16.3333 55.72 16.12 55.8 15.88 55.8C15.64 55.8 15.48 55.7333 15.4 55.6C14.5467 53.44 14.0267 50.9333 13.84 48.08C13.84 47.8133 14.0533 47.68 14.48 47.68C14.9067 47.68 15.1333 47.7733 15.16 47.96C15.7467 49.9867 16.9333 51.6133 18.72 52.84C19.8133 53.6133 21.08 54 22.52 54C23.9867 54 25.16 53.5867 26.04 52.76C26.9467 51.9067 27.4 50.8933 27.4 49.72C27.4 48.52 27.0933 47.4533 26.48 46.52C25.8667 45.56 25.1067 44.7867 24.2 44.2C23.2933 43.6133 22.3067 43 21.24 42.36C20.1733 41.6933 19.1867 41.0667 18.28 40.48C17.3733 39.8667 16.6133 39.0533 16 38.04C15.3867 37.0267 15.08 35.88 15.08 34.6C15.08 32.6533 15.9467 31.0133 17.68 29.68C19.44 28.32 21.64 27.64 24.28 27.64C25.48 27.64 26.6 27.8 27.64 28.12L28.12 28.24C28.0133 27.8133 27.9467 27.52 27.92 27.36C27.92 27.2 27.9733 27.0933 28.08 27.04C28.2133 26.96 28.4 26.92 28.64 26.92C28.9067 26.92 29.08 27.0267 29.16 27.24C29.7733 29.4 30.1333 31.52 30.24 33.6C30.16 33.76 29.9333 33.84 29.56 33.84C29.2133 33.84 29 33.8 28.92 33.72C28.6267 32.6267 28.2133 31.7333 27.68 31.04C27.1467 30.32 26.56 29.8267 25.92 29.56C25.28 29.2933 24.5333 29.16 23.68 29.16C22.0267 29.16 20.84 29.5867 20.12 30.44C19.4267 31.2667 19.08 32.1867 19.08 33.2C19.08 34.1867 19.3067 35.04 19.76 35.76C20.24 36.4533 20.84 37.0667 21.56 37.6C22.3067 38.1067 23.12 38.6133 24 39.12C24.88 39.6 25.76 40.12 26.64 40.68C27.5467 41.24 28.3733 41.8533 29.12 42.52C30.7733 43.9867 31.6 45.84 31.6 48.08Z" fill="black"/>
</svg>
